<mxfile host="app.diagrams.net" agent="Mozilla/5.0 (Windows NT 10.0; Win64; x64) AppleWebKit/537.36 (KHTML, like Gecko) Chrome/141.0.0.0 Safari/537.36" version="28.2.7">
  <diagram name="Page-1" id="44Gq0HUf6_HCvi81q9SC">
    <mxGraphModel dx="946" dy="597" grid="1" gridSize="10" guides="1" tooltips="1" connect="1" arrows="1" fold="1" page="1" pageScale="1" pageWidth="827" pageHeight="1169" math="0" shadow="0">
      <root>
        <mxCell id="0" />
        <mxCell id="1" parent="0" />
        <mxCell id="b0Wl5kgsE2PlQLiSxUC3-3" value="" style="edgeStyle=none;curved=1;rounded=0;orthogonalLoop=1;jettySize=auto;html=1;fontSize=12;startSize=8;endSize=8;" parent="1" source="b0Wl5kgsE2PlQLiSxUC3-1" target="b0Wl5kgsE2PlQLiSxUC3-2" edge="1">
          <mxGeometry relative="1" as="geometry" />
        </mxCell>
        <mxCell id="b0Wl5kgsE2PlQLiSxUC3-1" value="create_plane" style="ellipse;whiteSpace=wrap;html=1;" parent="1" vertex="1">
          <mxGeometry x="360" y="140" width="120" height="60" as="geometry" />
        </mxCell>
        <mxCell id="b0Wl5kgsE2PlQLiSxUC3-8" style="edgeStyle=none;curved=1;rounded=0;orthogonalLoop=1;jettySize=auto;html=1;entryX=0.5;entryY=0;entryDx=0;entryDy=0;fontSize=12;startSize=8;endSize=8;" parent="1" source="b0Wl5kgsE2PlQLiSxUC3-2" target="b0Wl5kgsE2PlQLiSxUC3-48" edge="1">
          <mxGeometry relative="1" as="geometry" />
        </mxCell>
        <mxCell id="b0Wl5kgsE2PlQLiSxUC3-2" value="Create a list called rows containing 18 elements" style="whiteSpace=wrap;html=1;" parent="1" vertex="1">
          <mxGeometry x="360" y="240" width="120" height="80" as="geometry" />
        </mxCell>
        <mxCell id="5U9ReLmfw8a_2haY-prF-36" value="" style="edgeStyle=orthogonalEdgeStyle;rounded=0;orthogonalLoop=1;jettySize=auto;html=1;" edge="1" parent="1" source="b0Wl5kgsE2PlQLiSxUC3-48" target="5U9ReLmfw8a_2haY-prF-35">
          <mxGeometry relative="1" as="geometry" />
        </mxCell>
        <mxCell id="b0Wl5kgsE2PlQLiSxUC3-48" value="Assign the value 0 to the new variables rowIndex and seatIndex" style="whiteSpace=wrap;html=1;" parent="1" vertex="1">
          <mxGeometry x="330" y="360" width="180" height="80" as="geometry" />
        </mxCell>
        <mxCell id="5U9ReLmfw8a_2haY-prF-38" value="" style="edgeStyle=orthogonalEdgeStyle;rounded=0;orthogonalLoop=1;jettySize=auto;html=1;" edge="1" parent="1" source="5U9ReLmfw8a_2haY-prF-35" target="5U9ReLmfw8a_2haY-prF-37">
          <mxGeometry relative="1" as="geometry" />
        </mxCell>
        <mxCell id="5U9ReLmfw8a_2haY-prF-35" value="In the rows list, create a new list in the element with an index of rowIndex, with a size of 6 elements" style="whiteSpace=wrap;html=1;" vertex="1" parent="1">
          <mxGeometry x="310" y="480" width="220" height="80" as="geometry" />
        </mxCell>
        <mxCell id="5U9ReLmfw8a_2haY-prF-40" value="" style="edgeStyle=orthogonalEdgeStyle;rounded=0;orthogonalLoop=1;jettySize=auto;html=1;" edge="1" parent="1" source="5U9ReLmfw8a_2haY-prF-37" target="5U9ReLmfw8a_2haY-prF-39">
          <mxGeometry relative="1" as="geometry" />
        </mxCell>
        <mxCell id="5U9ReLmfw8a_2haY-prF-37" value="In this sub list, insert the string &quot;empty&quot; into the element with an index of seatIndex" style="whiteSpace=wrap;html=1;" vertex="1" parent="1">
          <mxGeometry x="320" y="600" width="200" height="80" as="geometry" />
        </mxCell>
        <mxCell id="5U9ReLmfw8a_2haY-prF-53" value="" style="edgeStyle=orthogonalEdgeStyle;rounded=0;orthogonalLoop=1;jettySize=auto;html=1;" edge="1" parent="1" source="5U9ReLmfw8a_2haY-prF-39" target="5U9ReLmfw8a_2haY-prF-52">
          <mxGeometry relative="1" as="geometry" />
        </mxCell>
        <mxCell id="5U9ReLmfw8a_2haY-prF-39" value="Is seatIndex = 5" style="rhombus;whiteSpace=wrap;html=1;" vertex="1" parent="1">
          <mxGeometry x="320" y="720" width="200" height="80" as="geometry" />
        </mxCell>
        <mxCell id="5U9ReLmfw8a_2haY-prF-45" style="edgeStyle=orthogonalEdgeStyle;rounded=0;orthogonalLoop=1;jettySize=auto;html=1;entryX=0;entryY=0.5;entryDx=0;entryDy=0;" edge="1" parent="1" source="5U9ReLmfw8a_2haY-prF-41" target="5U9ReLmfw8a_2haY-prF-37">
          <mxGeometry relative="1" as="geometry" />
        </mxCell>
        <mxCell id="5U9ReLmfw8a_2haY-prF-41" value="Increment seatIndex by 1" style="whiteSpace=wrap;html=1;" vertex="1" parent="1">
          <mxGeometry x="180" y="610" width="100" height="60" as="geometry" />
        </mxCell>
        <mxCell id="5U9ReLmfw8a_2haY-prF-43" value="No" style="text;html=1;whiteSpace=wrap;strokeColor=none;fillColor=none;align=center;verticalAlign=middle;rounded=0;" vertex="1" parent="1">
          <mxGeometry x="250" y="730" width="60" height="30" as="geometry" />
        </mxCell>
        <mxCell id="5U9ReLmfw8a_2haY-prF-51" value="" style="edgeStyle=orthogonalEdgeStyle;rounded=0;orthogonalLoop=1;jettySize=auto;html=1;entryX=0.5;entryY=1;entryDx=0;entryDy=0;" edge="1" parent="1" source="5U9ReLmfw8a_2haY-prF-39" target="5U9ReLmfw8a_2haY-prF-41">
          <mxGeometry relative="1" as="geometry">
            <mxPoint x="320" y="760" as="sourcePoint" />
            <mxPoint x="120" y="700" as="targetPoint" />
          </mxGeometry>
        </mxCell>
        <mxCell id="5U9ReLmfw8a_2haY-prF-55" value="" style="edgeStyle=orthogonalEdgeStyle;rounded=0;orthogonalLoop=1;jettySize=auto;html=1;" edge="1" parent="1" source="5U9ReLmfw8a_2haY-prF-52" target="5U9ReLmfw8a_2haY-prF-54">
          <mxGeometry relative="1" as="geometry" />
        </mxCell>
        <mxCell id="5U9ReLmfw8a_2haY-prF-62" style="edgeStyle=orthogonalEdgeStyle;rounded=0;orthogonalLoop=1;jettySize=auto;html=1;entryX=0.5;entryY=0;entryDx=0;entryDy=0;" edge="1" parent="1" source="5U9ReLmfw8a_2haY-prF-52" target="5U9ReLmfw8a_2haY-prF-61">
          <mxGeometry relative="1" as="geometry" />
        </mxCell>
        <mxCell id="5U9ReLmfw8a_2haY-prF-52" value="Is rowIndex = 17" style="rhombus;whiteSpace=wrap;html=1;" vertex="1" parent="1">
          <mxGeometry x="320" y="840" width="200" height="80" as="geometry" />
        </mxCell>
        <mxCell id="5U9ReLmfw8a_2haY-prF-57" style="edgeStyle=orthogonalEdgeStyle;rounded=0;orthogonalLoop=1;jettySize=auto;html=1;entryX=1;entryY=0.5;entryDx=0;entryDy=0;" edge="1" parent="1" source="5U9ReLmfw8a_2haY-prF-54" target="5U9ReLmfw8a_2haY-prF-35">
          <mxGeometry relative="1" as="geometry">
            <Array as="points">
              <mxPoint x="640" y="520" />
            </Array>
          </mxGeometry>
        </mxCell>
        <mxCell id="5U9ReLmfw8a_2haY-prF-54" value="Increment rowIndex by 1 and set seatIndex = 0" style="whiteSpace=wrap;html=1;" vertex="1" parent="1">
          <mxGeometry x="580" y="850" width="120" height="60" as="geometry" />
        </mxCell>
        <mxCell id="5U9ReLmfw8a_2haY-prF-56" value="No" style="text;html=1;whiteSpace=wrap;strokeColor=none;fillColor=none;align=center;verticalAlign=middle;rounded=0;" vertex="1" parent="1">
          <mxGeometry x="510" y="850" width="60" height="30" as="geometry" />
        </mxCell>
        <mxCell id="5U9ReLmfw8a_2haY-prF-58" value="Yes" style="text;html=1;whiteSpace=wrap;strokeColor=none;fillColor=none;align=center;verticalAlign=middle;rounded=0;" vertex="1" parent="1">
          <mxGeometry x="420" y="800" width="60" height="30" as="geometry" />
        </mxCell>
        <mxCell id="5U9ReLmfw8a_2haY-prF-61" value="Return rows" style="ellipse;whiteSpace=wrap;html=1;" vertex="1" parent="1">
          <mxGeometry x="360" y="960" width="120" height="60" as="geometry" />
        </mxCell>
        <mxCell id="5U9ReLmfw8a_2haY-prF-63" value="Yes" style="text;html=1;whiteSpace=wrap;strokeColor=none;fillColor=none;align=center;verticalAlign=middle;rounded=0;" vertex="1" parent="1">
          <mxGeometry x="420" y="920" width="60" height="30" as="geometry" />
        </mxCell>
      </root>
    </mxGraphModel>
  </diagram>
</mxfile>
